<?xml version="1.0" standalone="no"?><!DOCTYPE svg PUBLIC "-//W3C//DTD SVG 1.1//EN" "http://www.w3.org/Graphics/SVG/1.1/DTD/svg11.dtd"><svg t="1772230568227" class="icon" viewBox="0 0 1024 1024" version="1.1" xmlns="http://www.w3.org/2000/svg" p-id="5439" xmlns:xlink="http://www.w3.org/1999/xlink" width="200" height="200"><path d="M568.9 187c3.1 1.1 6.1 2.4 9.1 3.7-3-1.3-6-2.5-9.1-3.7zM532.2 178.9c-4.9-0.5-9.9-0.7-14.8-0.7 4.9 0 9.9 0.2 14.8 0.7 2.5 0.1 4.9 0.4 7.4 0.8 1.8 0.3 3.6 0.5 5.4 0.9v-0.1l38.6-110.9c-19.9-3.2-40.1-5.1-60.8-5.6l9.6 114.2-0.2 0.7zM578 190.8c6 2.7 11.8 5.8 17.4 9.4-5.6-3.6-11.4-6.7-17.4-9.4zM421.6 219.2c10-10.4 21.7-19 34.5-25.7L445.5 68.8c-87.1 13-166 51-229.1 106.5l66.2-1c49 4.6 96.5 19.9 139 44.9zM611.3 212c1.3 1.1 2.5 2.2 3.7 3.3 15.8 14.8 27.9 33.3 35.2 53.7v0.1c-20.7 5.7-40.8 13.1-60.3 22.1l0.6 1.5-24.1 11.4-0.3-0.9c-7.6 4.1-15 8.5-22.4 13.1 0.1 0.2 0.2 0.4 0.4 0.6 12.8-7.2 26-13.8 39.5-19.9 25.9-11.6 53-20.9 80.9-27.8 58-14.7 118.8-18.7 178.7-12l39.5 3c-54.2-79.6-133.3-140.8-226.2-172.4L615 215.3c-1.2-1.2-2.4-2.3-3.7-3.3z" fill="#F8C9B1" p-id="5440"></path><path d="M832.4 333.9c-55.9-6.2-112.6-0.9-165.8 15.7-4.1 1.3-8.2 2.6-12.2 4 14.3 24.8 28.5 49.6 40.5 70.3 19.2 33.3 17.9 74.6-3.2 106.7-11 16.6-16.8 36-16.9 55.8v45.8c0 66.7-29 130.1-79.5 173.7-41 35.4-102.5 32.4-139.9-6.8L353.2 691.6c-37.5-39.3-60.2-90.4-64.4-144.6-43.3-64.4-35.8-150.3 17.9-206.2l8.2-8.4c1.3-1.4 2.6-3 4.1-4.5l49-48.9 0.5-0.9c-28.6-14.2-59.6-23.2-91.4-26.5l-131.2 1.9c-51.7 73-82 162.2-82 258.5 0 246.5 199.6 448.1 448.1 448.1 249.1 0 448.1-202.2 448.1-448.1 0-60.9-12.2-118.9-34.2-171.9l-93.5-6.2z m-612.3 20.6l24.2 10.3c-21.4 50.3-24.6 106.5-9 158.8l2.9 10L213 541l-2.9-9.9c-17.4-58.3-13.8-120.7 10-176.6z m43.8 435l-14-12.8c-15.8-14.3-29-31.2-39.2-49.9l23.1-12.6c8.7 16.1 20.1 30.7 33.7 43l14 12.8-17.6 19.5z m127.3 45.1l-82.3-75.4c-24.8-22.7-45.1-49.8-59.9-79.9l23.6-11.6c13.4 27.2 31.8 51.6 54.1 72.1l82.3 75.5-17.8 19.3zM759 404.3l2.6 3c26.4 30.2 28.3 74.8 4.5 107.1L745 498.7c16.5-22.3 15.2-53.2-3.1-74l-2.7-3.1 19.8-17.3zM639.1 855.8l-16.9-20.2c65.4-54.4 103.1-135.1 103-220.2v-1.7h26.3v1.7c0.2 92.8-41 181-112.4 240.4zM794.3 704c-4 53.3-29.6 102.7-70.8 136.7l-16.7-20.3c35.7-29.5 57.9-72.2 61.3-118.4l0.8-10.4 26.3 2-0.9 10.4z m35.4-225.1l-1.8 10.2-25.9-4.6 1.8-10.3c2.8-15 1.9-30.5-2.5-45.1l25.2-7.6c5.6 18.6 6.7 38.3 3.2 57.4zM595.4 200.1c5.6 3.5 10.9 7.5 15.9 11.8-5-4.3-10.3-8.2-15.9-11.8zM558.2 183.6c3.6 1 7.2 2.1 10.7 3.4-3.5-1.2-7.1-2.4-10.7-3.4z" fill="#F8C9B1" p-id="5441"></path><path d="M664.5 269.1c-27.9 6.9-55 16.2-80.9 27.8-13.5 6-26.7 12.7-39.5 19.9 14.1 21.6 25.7 44.7 34.7 68.9 22.8-15.1 47.4-27.3 73.3-36.1 0.8 1.3 1.5 2.6 2.3 4 4-1.4 8.1-2.7 12.2-4 53.2-16.5 109.9-21.9 165.8-15.7l93.6 6.2c-11.7-28.2-26.3-55-43.3-80l-39.5-3c-59.9-6.7-120.7-2.6-178.7 12z" fill="#8E0031" p-id="5442"></path><path d="M579.9 389c10.6 29 17.9 59.1 21.6 89.7l-26.2 3.3c-3.5-28.7-10.3-56.8-20.2-84-8.5-23.7-19.8-46.4-33.6-67.5-10.8-16.5-23.2-31.9-37-46.1-2.2 2.5-4.2 5.2-5.8 8.2-8.1 13.9-12.9 29.4-14.1 45.4 33.5 43.6 54.3 95.7 60 150.5l-26.1 3.3c-3.8-37.3-15.2-73.2-33.5-105.6l1.6 77.1-26.3 0.5-2.3-115c0-2.6 0-4.9 0.2-7.3 0.7-21.9 6.8-43.2 17.8-62.1 5.3-9.4 12.7-17.5 21.5-23.8 33.9-23.5 80.3-15 103.8 18.9 3.6 5.2 6.5 10.7 8.6 16.6 19.5-9 39.6-16.3 60.3-22.1-7.3-20.5-19.3-38.9-35.2-53.7-1.2-1.1-2.5-2.2-3.7-3.3-5-4.3-10.3-8.3-15.9-11.8s-11.4-6.7-17.4-9.4c-3-1.4-6-2.6-9.1-3.7-3.5-1.3-7.1-2.4-10.7-3.4-4.4-1.2-8.8-2.2-13.2-3-1.8-0.4-3.6-0.7-5.4-0.9-2.4-0.4-4.9-0.7-7.4-0.8-4.9-0.5-9.9-0.7-14.8-0.7-14.7 0.1-29.4 2.7-43.3 7.5-6.2 2.1-12.2 4.7-18.1 7.8-12.8 6.6-24.5 15.3-34.5 25.7-8.2 8.5-15.3 17.9-21.2 28.2-0.9 1.5-1.7 3.1-2.6 4.6-3.4 6.2-6.4 12.5-9 19-2 4.9-3.8 9.8-5.4 14.9-1.3-0.7-2.5-1.4-3.8-2.1-1.2-0.7-2.5-1.3-3.7-2-2.5-1.3-5-2.5-7.4-3.7l-0.4 0.8-49 48.9c-1.4 1.4-2.8 3-4.1 4.5l-8.2 8.4c-53.8 56-61.2 141.8-17.9 206.2 4.2 54.2 26.9 105.2 64.4 144.6l102.2 107.5c37.3 39.3 98.9 42.3 139.9 6.8 50.5-43.6 79.5-107 79.5-173.7v-45.8c0-19.9 5.9-39.3 16.9-55.8 21.1-32.1 22.3-73.4 3.2-106.7-12-20.8-26.3-45.5-40.5-70.3-26.3 9-51.3 20.7-74.6 35 0 0.1 0.1 0.2 0.1 0.4zM624 664.5c-3.6-1.8-7.5-2.9-11.4-3.4 5.4 12.9 7.4 26.9 5.8 40.8l-26.1-3.7c1.5-15.4-3.4-30.7-13.6-42.4-3.6-4.1-7.9-7.5-12.7-10.1-12.5-7.5-22.9-18.2-30-31v0.1c-1.2 26.2 1.9 52.4 9.3 77.6 2.4 9.2 4.4 18.6 5.8 28 2 16.4 1.3 33-2 49.2l-25.6-6c2.6-13.1 3.1-26.6 1.5-39.9-0.8-6.7-2.9-15.2-5.3-25.1-5.3-19.8-8.8-40.1-10.4-60.6-7.4 6-13.6 13.3-18.4 21.6-2.7 4.6-5 9.4-7 14.4-2.8 7.5-5.2 15.2-7.1 23-2.4 13-7.6 25.2-15.3 35.9L441 716.4c5.2-7.8 8.7-16.7 10.3-26 0.6-2.5 1.4-5.3 2.2-8.1l-7.9-0.1c-8.2-0.3-16.2 1.9-23 6.4l-15-21.7c11.5-7.5 24.9-11.3 38.6-11 7.5 0.1 13.2 0.1 17.3 0.1 1.5-3.1 2.8-6.4 4.6-9.4 10.4-17.4 25.2-31.7 42.8-41.5 1.8-10.7 4.5-21.2 8-31.5l-0.1-0.6 0.4-0.1c0.3-1 0.7-2.1 1-3l3.7-10.2c9.2-25.3 17.8-49.2 13.3-77.3l26-4.1c3.3 30.9-1.8 62.1-14.6 90.4l-2.1 5.7c3.8 11.8 14.2 38.2 32.3 48.3 5.3 3 10.2 6.7 14.6 10.9 15.1-0.9 30.3 1.9 44.1 8.3L624 664.5z" fill="#C63B3C" p-id="5443"></path><path d="M578.7 385.7c0.3 0.9 0.7 1.8 1 2.8 23.2-14.2 48.3-26 74.6-35-0.8-1.3-1.5-2.6-2.3-4-25.9 9-50.5 21.1-73.3 36.2z" fill="#C63B3C" p-id="5444"></path><path d="M545 180.6c4.5 0.8 8.9 1.8 13.2 3 3.6 1 7.2 2.1 10.7 3.4 3.1 1.1 6.1 2.4 9.1 3.7 6 2.7 11.8 5.8 17.4 9.4 5.6 3.5 10.9 7.5 15.9 11.8 1.3 1.1 2.5 2.2 3.7 3.3l41.4-127.6c-23.5-8-47.9-14.1-72.9-18.1l-38.5 111v0.1z" fill="#8E0031" p-id="5445"></path><path d="M558.2 183.6c-4.4-1.2-8.8-2.2-13.2-3 4.4 0.8 8.9 1.8 13.2 3zM526.9 269.3c-6.5-1-13.2-0.7-19.4 1 13.4 14.2 25.5 29.5 36.2 45.9v0.1c7.3-4.6 14.8-8.9 22.4-13.1a50.85 50.85 0 0 0-39.2-33.9zM456.1 193.5c5.9-3 11.9-5.6 18.1-7.8 13.9-4.8 28.5-7.4 43.3-7.5 4.9 0 9.8 0.2 14.8 0.7l0.1-0.7L522.8 64c-3.6-0.1-7.2-0.1-10.8-0.1-22.6 0-44.8 1.7-66.5 4.9l10.6 124.7z" fill="#8E0031" p-id="5446"></path><path d="M474.2 185.8c-6.2 2.1-12.2 4.7-18.1 7.8 5.8-3.1 11.9-5.7 18.1-7.8zM474.2 185.8c13.9-4.8 28.5-7.4 43.3-7.5-14.8 0.1-29.4 2.6-43.3 7.5zM368.5 278.1c2.4 1.2 4.9 2.4 7.4 3.7 1.2 0.6 2.5 1.3 3.7 2 1.2 0.7 2.5 1.4 3.8 2.1 1.6-5 3.4-10 5.4-14.9 2.7-6.5 5.7-12.8 9-19 0.8-1.5 1.7-3.1 2.6-4.6 5.9-10.2 13-19.7 21.2-28.2-42.5-25-90-40.4-139.1-44.9l-66.2 1c-26.4 23.2-50.1 49.5-70.4 78.2l131.2-1.9c31.8 3.3 62.8 12.3 91.4 26.5z" fill="#8E0031" p-id="5447"></path><path d="M388.8 271c-2 4.9-3.8 9.8-5.4 14.9-1.3-0.7-2.5-1.4-3.8-2.1 1.2 0.7 2.5 1.4 3.8 2.1 1.6-5.1 3.4-10 5.4-14.9zM388.8 271c2.7-6.5 5.7-12.8 9-19-3.4 6.2-6.4 12.5-9 19zM421.6 219.2c-8.2 8.5-15.3 17.9-21.2 28.2 5.8-10.2 13-19.7 21.2-28.2zM375.9 281.8c-2.5-1.3-5-2.5-7.4-3.7 2.4 1.2 4.9 2.4 7.4 3.7zM464.4 348.6l0.8 37.8c18.2 32.4 29.7 68.3 33.5 105.6l26.1-3.3c-5.6-54.8-26.4-106.9-60-150.5-0.1 1.5-0.2 3.1-0.2 4.7-0.3 2.1-0.2 3.8-0.2 5.7zM532.6 323.4l1.2-0.7c3.4-2 6.8-4 10.3-5.9-0.1-0.2-0.2-0.4-0.4-0.6-3.4 2.1-6.7 4.3-10.1 6.5l-1 0.7z" fill="#8E0031" p-id="5448"></path><path d="M532.6 323.4c14.4 21.9 26.1 45.4 34.9 70.1h0.1c1.1-0.8 2.1-1.5 3.2-2.3-9.8-23.8-22.6-46.6-38.2-67.8-11.1-17-23.9-32.9-38-47.4 14.1 14.5 26.9 30.4 38 47.4z" fill="#8E0031" p-id="5449"></path><path d="M532.6 323.4c15.6 21.2 28.4 44 38.2 67.8 2.6-1.9 5.3-3.7 7.9-5.4-8.9-24.2-20.6-47.3-34.7-68.9-3.5 1.9-6.9 3.9-10.3 5.9l-1.1 0.6z" fill="#8E0031" p-id="5450"></path><path d="M571.7 393.4c-0.3-0.8-0.6-1.5-0.9-2.3-1.1 0.8-2.1 1.5-3.2 2.3h-0.1c-8.8-24.7-20.5-48.2-34.9-70.1-11.1-17-23.9-32.9-38-47.4l-1.8 1.2c-3 2.1-5.7 4.6-8.2 7.4 13.8 14.1 26.2 29.5 37 46.1 13.8 21.1 25.1 43.7 33.6 67.5 9.9 27.1 16.7 55.3 20.2 84l26.2-3.3c-3.7-30.6-11-60.7-21.6-89.7-0.1-0.2-0.1-0.3-0.2-0.5-2.6 1.6-5.3 3.3-7.9 4.9h-0.2z" fill="#8E0031" p-id="5451"></path><path d="M571.7 393.4h0.1c2.6-1.7 5.2-3.3 7.9-4.9-0.3-0.9-0.7-1.8-1-2.8-2.7 1.8-5.3 3.6-7.9 5.4 0.3 0.8 0.6 1.6 0.9 2.3zM507.4 270.3c-4.5 1.2-8.8 3.1-12.8 5.6 14.1 14.6 26.9 30.4 38 47.4l1.1-0.7c3.3-2.2 6.7-4.4 10.1-6.5v-0.1c-10.9-16.2-23-31.5-36.4-45.7zM526.8 256c0.4 0.1 0.8 0.1 1.3 0.2-0.4-0.1-0.9-0.2-1.3-0.2zM578 296.9c-4 2-8 4.1-12 6.3l0.3 0.9 24.1-11.4-0.6-1.5c-3.9 1.8-7.8 3.7-11.8 5.7z" fill="#8E0031" p-id="5452"></path><path d="M477.5 255.7c-8.8 6.3-16.1 14.4-21.5 23.8-11 18.9-17.2 40.2-17.8 62.1-0.2 2.4-0.2 4.6-0.2 7.3l2.4 115.1 26.3-0.5-1.6-77.1c-7-12.4-15-24.3-23.9-35.6l20.3-16.8 3.3 4.2c1.1-16 5.9-31.5 14.1-45.4 1.6-2.9 3.6-5.7 5.8-8.2-2.8-2.9-5.7-5.7-8.6-8.5l8.5-10.1 9.2-9.3c1.1 1.1 2.3 2.2 3.4 3.3 9.3-3.8 19.5-5.2 29.7-3.9 0.4 0 0.8 0.1 1.3 0.2 0.2 0 0.5 0.1 0.7 0.1 22.9 2.8 42.1 18.7 49.3 40.7 3.9-2 7.9-3.9 11.9-5.7-2.2-5.9-5.1-11.5-8.6-16.6-23.6-34.1-70.1-42.6-104-19.1z" fill="#8E0031" p-id="5453"></path><path d="M578 296.9c-7.9-22.7-27.7-37.8-50-40.8-0.4-0.1-0.8-0.1-1.3-0.2-8.8-1-18-0.1-26.9 3-0.9 0.3-1.8 0.6-2.7 1 3.5 3.4 6.9 6.8 10.2 10.3 6.3-1.7 12.9-2.1 19.4-1a50.85 50.85 0 0 1 39.2 33.9c4.1-2.1 8.1-4.2 12.1-6.2z" fill="#8E0031" p-id="5454"></path><path d="M499.9 259c8.9-3.1 18.1-4 26.9-3-10.1-1.2-20.3 0.1-29.7 3.9l0.1 0.1c0.9-0.4 1.8-0.7 2.7-1zM578 296.9c-7.1-22-26.3-37.8-49.3-40.7-0.2 0-0.5-0.1-0.7-0.1 22.3 3 42.2 18.1 50 40.8zM441.2 350.8c8.9 11.3 16.9 23.2 23.9 35.6l-0.8-37.8c0-1.9 0-3.6 0.1-5.8 0-1.6 0.1-3.1 0.2-4.7l-3.3-4.2-20.1 16.9zM485.1 266.5zM491.7 273c1 1 1.9 2 2.9 3-1-1-1.9-2-2.9-3z" fill="#8E0031" p-id="5455"></path><path d="M492.7 277.2l1.8-1.2c-1-1-1.9-2-2.9-3-2.2-2.2-4.4-4.4-6.7-6.5 3.8-2.7 7.8-4.9 12.1-6.6-1.1-1.1-2.3-2.2-3.4-3.3l-9.2 9.3L476 276c2.9 2.8 5.8 5.6 8.6 8.5 2.4-2.7 5.1-5.2 8.1-7.3z" fill="#8E0031" p-id="5456"></path><path d="M485.1 266.5c2.3 2.1 4.5 4.3 6.7 6.5 1 1 1.9 2 2.9 3 4-2.5 8.3-4.4 12.8-5.6-3.3-3.5-6.7-7-10.2-10.3-4.4 1.6-8.4 3.8-12.2 6.4z" fill="#8E0031" p-id="5457"></path><path d="M485.1 266.5c2.3 2.1 4.5 4.3 6.7 6.5-2.3-2.2-4.5-4.4-6.7-6.5zM497.2 260c0-0.1 0-0.1 0 0-4.3 1.6-8.4 3.8-12.2 6.5 3.9-2.6 7.9-4.8 12.2-6.5zM593.4 633.6c-4.4-4.2-9.3-7.9-14.6-10.9-18.1-10.1-28.5-36.5-32.3-48.3l2.1-5.7c12.8-28.3 17.8-59.5 14.6-90.4l-26 4.1c4.5 28.1-4.2 52-13.3 77.3l-3.7 10.2c-0.3 1-0.7 2-1 3l-0.4 0.1 0.1 0.6c-3.5 10.2-6.2 20.8-8 31.5-17.7 9.8-32.4 24.2-42.8 41.5-1.8 3-3.1 6.3-4.6 9.4-4.1 0-9.7 0-17.3-0.1-13.7-0.3-27.1 3.6-38.6 11l15 21.7c6.9-4.4 14.9-6.6 23-6.4l7.9 0.1c-0.8 2.7-1.5 5.5-2.2 8.1-1.6 9.3-5.1 18.1-10.3 26l20.5 16.5c7.7-10.7 12.9-22.9 15.3-35.9 1.9-7.8 4.2-15.5 7.1-23 2-5 4.4-9.8 7-14.4 4.8-8.2 11.1-15.5 18.4-21.6 1.6 20.5 5.1 40.7 10.4 60.6 2.4 9.9 4.4 18.4 5.3 25.1 1.6 13.3 1.1 26.7-1.5 39.9l25.6 6c3.3-16.2 4-32.8 2-49.2-1.4-9.4-3.4-18.8-5.8-28-7.4-25.2-10.5-51.4-9.3-77.6v-0.1c7.2 12.7 17.5 23.4 30 31 4.8 2.6 9 6 12.7 10.1 10.2 11.7 15.1 27 13.6 42.4l26.1 3.7c1.6-13.9-0.4-27.9-5.8-40.8 4 0.5 7.8 1.6 11.4 3.4l13.5-22.6c-13.8-6.4-29-9.3-44.1-8.3zM238.3 533.6l-2.9-10c-15.6-52.4-12.4-108.6 9-158.8l-24.2-10.3c-23.8 55.9-27.4 118.4-10 176.6l2.9 9.9 25.2-7.4zM751.6 613.6h-26.3v1.7c0.1 85.1-37.6 165.8-103 220.2l16.9 20.2c71.4-59.4 112.6-147.6 112.5-240.4v-1.7zM745 498.7l21.1 15.7c23.8-32.3 22-76.9-4.5-107.1l-2.6-3-19.9 17.3 2.7 3.1c18.3 20.9 19.6 51.7 3.2 74zM272.6 667.6L249 679.2c14.8 30.1 35.2 57.2 59.9 79.9l82.3 75.4 17.8-19.4-82.3-75.5c-22.4-20.4-40.7-44.8-54.1-72zM768.1 701.9c-3.5 46.2-25.6 88.9-61.3 118.4l16.7 20.3c41.2-34 66.8-83.4 70.8-136.7l0.8-10.4-26.3-2-0.7 10.4zM233.9 714.3l-23.1 12.6c10.1 18.7 23.4 35.6 39.2 49.9l14 12.8 17.8-19.4-14-12.8c-13.8-12.5-25.2-27-33.9-43.1zM801.3 429.1c4.4 14.6 5.3 30.1 2.5 45.1l-1.8 10.3 25.9 4.6 1.8-10.2c3.5-19.1 2.4-38.8-3.2-57.4l-25.2 7.6z" fill="#8E0031" p-id="5458"></path></svg>